PathFileType	4	(X/Y/Z)	D:\TRACE\spotREDO_2-26-24\spot_Both_Motion_3_10-platform.trc
DataRate	CameraRate	NumFrames	NumMarkers	Units	OrigDataRate	OrigDataStartFrame	OrigNumFrames
100.00	100.00	      30	5	mm	100.00	3501	      7000
Frame#	Time	Left_Front			Right_Front			Left_Aft			Right_Aft			Post			
		X1	Y1	Z1	X2	Y2	Z2	X3	Y3	Z3	X4	Y4	Z4	X5	Y5	Z5	

3501	35.000	-671.87170	8.77301	-572.45740	742.60077	16.32454	-487.59561	-743.45087	-9.02955	646.05774	825.70831	-1.56498	651.39832	22.37100	644.08936	-965.74817	
3502	35.010	-672.15820	8.91556	-572.24420	742.46948	16.35817	-487.62753	-743.50830	-8.96749	646.08197	825.58124	-1.47246	651.41064	22.36789	644.04022	-965.88757	
3503	35.020	-672.03711	8.80074	-572.45709	742.47241	16.28858	-487.65277	-743.56671	-8.96827	646.07092	825.57855	-1.45492	651.39557	22.32102	644.01648	-965.97260	
3504	35.030	-671.95612	8.80308	-572.58295	742.42664	16.31115	-487.62531	-743.63123	-8.85569	646.05548	825.54895	-1.40804	651.43610	22.24826	643.98376	-966.03571	
3505	35.040	-672.06165	8.78717	-572.52234	742.44189	16.24362	-487.69247	-743.60046	-8.85905	646.01483	825.61322	-1.39913	651.36072	22.18775	643.91821	-966.01147	
3506	35.050	-672.04883	8.75885	-572.54828	742.42212	16.18845	-487.70029	-743.65295	-8.79238	646.03961	825.60138	-1.36647	651.36633	22.20600	643.84766	-965.98761	
3507	35.060	-672.02368	8.70543	-572.55176	742.47516	16.12601	-487.69885	-743.64258	-8.74100	646.00043	825.61816	-1.33969	651.35742	22.13183	643.95197	-965.97052	
3508	35.070	-672.06848	8.67432	-572.50543	742.40875	16.10088	-487.73395	-743.70490	-8.65797	645.94873	825.56934	-1.30836	651.34503	21.70984	643.81268	-965.94971	
3509	35.080	-672.08618	8.68313	-572.54279	742.42487	16.02320	-487.72900	-743.74390	-8.58283	645.95935	825.49420	-1.27647	651.34515	21.70089	643.80127	-965.98950	
3510	35.090	-672.12860	8.63943	-572.55530	742.37952	15.91762	-487.73685	-743.79382	-8.33315	645.95453	825.46497	-1.21773	651.28876	21.64046	643.66705	-966.12128	
3511	35.100	-672.14783	8.53639	-572.55652	742.51086	15.49711	-487.54303	-743.86078	-8.31248	645.90894	825.45245	-1.20692	651.27930	20.87599	643.55267	-966.28601	
3512	35.110	-672.22784	8.39244	-572.50128	742.37762	15.42340	-487.60226	-743.91870	-8.33849	645.87592	825.44794	-1.13351	651.25323	20.60920	643.34033	-966.45325	
3513	35.120	-672.19568	8.35144	-572.52179	742.40204	15.38056	-487.60199	-743.91223	-8.28521	645.84821	825.48083	-1.16027	651.21039	20.62960	643.33740	-966.59869	
3514	35.130	-672.19409	8.22459	-572.51318	742.35138	15.47607	-487.66809	-743.90424	-8.29606	645.87860	825.46075	-1.13579	651.23450	21.35725	642.93243	-966.87683	
3515	35.140	-672.20984	8.16473	-572.54700	742.47614	15.31897	-487.62009	-743.86072	-8.16485	645.85962	825.49762	-0.99109	651.21002	21.57596	642.78278	-967.01068	
3516	35.150	-672.17694	8.15219	-572.53510	742.49744	15.13786	-487.65018	-743.82776	-8.08913	645.89874	825.68481	-0.76071	651.18030	21.68379	642.68909	-967.13977	
3517	35.160	-672.18079	8.05286	-572.53815	742.47925	15.16945	-487.70673	-743.79230	-7.98298	645.86182	825.63147	-0.64387	651.15326	21.70278	642.64020	-967.18396	
3518	35.170	-672.19324	7.98656	-572.61786	742.48914	15.07414	-487.74667	-743.82697	-7.95938	645.80511	825.63342	-0.60684	651.11682	21.69695	642.40747	-967.20782	
3519	35.180	-672.36188	7.89237	-572.62555	742.43170	14.98023	-487.80408	-743.84137	-7.99084	645.83087	825.50012	-0.61145	651.05872	21.38013	642.28796	-967.37677	
3520	35.190	-672.33398	7.68678	-572.68140	742.29364	14.83282	-487.91864	-743.78937	-7.82823	645.70099	825.51678	-0.44135	651.14807	21.14177	642.16907	-967.32391	
3521	35.200	-672.22882	7.48954	-572.67383	742.36481	14.76823	-487.89813	-743.83899	-7.59895	645.67395	825.61359	-0.26483	651.06647	20.36718	642.12347	-967.44159	
3522	35.210	-672.26019	7.42287	-572.72217	742.23962	14.80198	-487.97812	-743.83575	-7.44847	645.62531	825.54541	-0.00407	651.01300	22.53605	641.65674	-967.11298	
3523	35.220	-672.32477	7.25447	-572.75385	742.19781	14.73741	-488.08414	-743.79413	-7.32482	645.55988	825.44092	0.12791	650.95740	22.76985	641.45428	-967.14130	
3524	35.230	-672.39716	7.00580	-572.88354	742.15955	14.59580	-488.13034	-743.76721	-7.21926	645.51318	825.33807	0.26706	650.88812	22.20236	640.99438	-967.83295	
3525	35.240	-672.44946	6.84937	-572.90771	742.07080	14.48278	-488.21317	-743.85461	-7.09195	645.48846	824.96112	0.45004	650.76410	22.21840	640.51776	-968.20300	
3526	35.250	-672.39581	6.72112	-572.92371	742.11145	14.32933	-488.32953	-743.92358	-6.81330	645.41095	825.26270	0.73836	650.69543	21.97063	640.31396	-968.60931	
3527	35.260	-672.35779	6.55867	-572.99774	742.17566	14.20513	-488.40768	-743.83240	-6.38548	645.49731	825.38025	0.97083	650.69153	22.12617	640.13666	-968.88934	
3528	35.270	-672.39508	6.38617	-572.97852	742.13037	14.11648	-488.43314	-743.89709	-6.14024	645.47076	825.25311	1.30320	650.72528	21.93166	639.99615	-969.25751	
3529	35.280	-672.28033	6.12400	-573.03131	742.16962	13.88120	-488.55026	-743.90796	-6.00606	645.39661	825.34277	1.32981	650.71539	21.98088	639.63129	-969.80768	
3530	35.290	-672.26678	5.89763	-573.11597	742.22522	13.73352	-488.53574	-743.92090	-5.91563	645.35419	825.27948	1.36242	650.66486	23.19307	639.23132	-970.48602	
